<svg style="height:22px;width:auto" viewBox="0 0 1011.8 242.5" xmlns="http://www.w3.org/2000/svg"><g>
    <path style="fill:#d4531a" d="M967.2,29.5h32.9v183.5h-32.9v-3.7h15.6V33.2h-15.6v-3.7Z"/>
    <path style="fill:#fff" d="M37,213H4.1V29.5h32.9v3.7h-15.6v176.1h15.6v3.7Z"/>
  </g>
  <g>
    <path style="fill:#fff" d="M107.2,160c-10.3,0-19.4-2.2-27.4-6.7-7.9-4.5-14.2-10.6-18.7-18.5-4.5-7.8-6.8-16.9-6.8-27.1s2.3-19.2,6.8-27.1c4.5-7.8,10.8-14,18.7-18.5,7.9-4.5,17.1-6.7,27.4-6.7s11.8.9,17,2.7c5.2,1.8,9.8,4.4,13.8,7.6,4,3.2,7.3,6.9,10,11.1l-16.2,10.1c-1.6-2.6-3.8-4.9-6.4-6.9-2.6-2-5.6-3.6-8.7-4.8-3.2-1.2-6.4-1.7-9.5-1.7-6.4,0-12,1.5-16.9,4.4-4.9,2.9-8.8,7-11.6,12.1-2.8,5.1-4.2,11-4.2,17.8s1.4,12.6,4.1,17.8c2.7,5.2,6.6,9.3,11.6,12.2,5,2.9,10.8,4.4,17.3,4.4s9.7-1,13.7-3c4-2,7.2-4.9,9.5-8.5,2.3-3.7,3.5-7.9,3.5-12.7l18.8-2.9c0,9.5-2,17.7-5.9,24.4-3.9,6.7-9.3,11.9-16.2,15.4-6.9,3.5-14.8,5.3-23.8,5.3ZM110.5,119.5v-15.5h42.5v12.3l-10.7,3.2h-31.8Z"/>
    <path style="fill:#fff" d="M197.4,160c-7.1,0-13.4-1.6-18.9-4.8-5.5-3.2-9.8-7.7-12.9-13.4-3.1-5.7-4.7-12.2-4.7-19.6s1.6-14,4.8-19.6c3.2-5.7,7.7-10.1,13.3-13.4,5.6-3.2,12.1-4.8,19.4-4.8s12.2,1.7,17.6,5,9.6,8.2,12.9,14.6c3.2,6.4,4.8,14.2,4.8,23.3h-54.7l1.7-1.7c0,3.6.9,6.7,2.7,9.3,1.8,2.6,4.1,4.7,6.9,6.1,2.8,1.4,5.9,2.1,9.2,2.1s7.2-.8,9.7-2.5c2.5-1.7,4.4-3.9,5.8-6.6l17,6.6c-2,4-4.6,7.5-7.9,10.5-3.2,2.9-7.1,5.2-11.5,6.7-4.4,1.5-9.5,2.3-15.2,2.3ZM181.7,114.8l-1.7-1.7h34.8l-1.6,1.7c0-3.5-.8-6.2-2.5-8.3-1.6-2.1-3.6-3.6-6-4.5-2.4-1-4.6-1.4-6.9-1.4s-4.6.5-7.1,1.4c-2.5,1-4.6,2.5-6.4,4.5-1.8,2.1-2.7,4.8-2.7,8.3Z"/>
    <path style="fill:#fff" d="M238.6,102.2v-16.2h48.8v16.2h-48.8ZM274.6,160c-8,0-14-2-18.1-5.9-4.1-3.9-6.1-9.6-6.1-16.9V63.5h19.1v69.5c0,3.1.7,5.4,2,7,1.3,1.6,3.3,2.4,5.9,2.4s2-.2,3.2-.6,2.4-1.1,3.6-2l6.6,14.3c-2.3,1.7-4.9,3.2-7.7,4.3-2.8,1.1-5.7,1.7-8.5,1.7Z"/>
    <path style="fill:#fff" d="M305.6,158.2V57.1h34.2c6.9,0,13,1.1,18.2,3.2,5.2,2.1,9.2,5.3,12.1,9.6,2.9,4.3,4.3,9.6,4.3,16s-1,7.6-3,10.9c-2,3.3-4.7,6.2-8.3,8.6,4.7,2.4,8.4,5.6,10.9,9.6,2.6,4,3.8,8.8,3.8,14.4s-1.4,11.4-4.2,15.7c-2.8,4.3-6.7,7.6-11.7,9.8-5,2.2-10.9,3.3-17.6,3.3h-38.9ZM325,98.3h15.3c4.3,0,7.8-1.1,10.3-3.3,2.5-2.2,3.8-5.3,3.8-9.4s-1.4-7.2-4.2-9.4c-2.8-2.2-6.6-3.3-11.4-3.3h-13.7v25.4ZM325,140.8h17.6c4.7,0,8.4-1.2,11.1-3.5,2.7-2.4,4-5.5,4-9.5s-1.5-7.4-4.5-9.8c-3-2.4-7.1-3.5-12.3-3.5h-16v26.3Z"/>
    <path style="fill:#fff" d="M414.7,160c-8.7,0-15.4-1.9-20.2-5.8-4.8-3.8-7.2-9.3-7.2-16.3s2.6-13.5,7.7-17.4c5.2-3.9,12.4-5.9,21.7-5.9h18.3v14.2h-11.7c-6.3,0-10.6.7-13,2.2-2.4,1.5-3.6,3.6-3.6,6.3s1,3.8,2.9,5c1.9,1.2,4.6,1.8,8.1,1.8s6-.7,8.5-2.2c2.5-1.5,4.4-3.4,5.9-5.8,1.4-2.4,2.2-4.8,2.2-7.3h4.6c0,9.8-1.9,17.5-5.6,23-3.7,5.5-9.9,8.2-18.7,8.2ZM434.9,158.2l-.6-14.6v-22c0-4.3-.5-8-1.4-11.1-.9-3.1-2.4-5.5-4.3-7.2-2-1.7-4.6-2.5-8-2.5s-5.9.7-8.4,2c-2.5,1.4-4.6,3.4-6.4,6.2l-16.8-5.8c1.3-3.1,3.3-6.1,5.9-9s6-5.3,10.2-7.2c4.2-1.9,9.3-2.8,15.4-2.8s13.4,1.4,18.3,4.2c4.9,2.8,8.5,6.7,10.8,11.8,2.4,5.1,3.5,11.1,3.4,18l-.4,40h-17.8Z"/>
    <path style="fill:#fff" d="M503.1,160c-7.5,0-14.2-1.6-20.1-4.8-5.9-3.2-10.5-7.7-13.7-13.4-3.3-5.7-4.9-12.3-4.9-19.6s1.6-14,4.9-19.6c3.3-5.7,7.8-10.1,13.6-13.4,5.8-3.2,12.4-4.8,19.9-4.8s13.8,1.8,19.8,5.3c6,3.6,10.3,8.7,13,15.5l-17.9,6.4c-1.3-2.8-3.4-5-6.3-6.7-2.8-1.7-6-2.5-9.5-2.5s-6.7.8-9.4,2.5c-2.7,1.7-4.8,4-6.4,7-1.5,3-2.3,6.5-2.3,10.4s.8,7.4,2.3,10.3c1.5,2.9,3.7,5.3,6.5,7,2.8,1.7,6,2.6,9.5,2.6s6.6-.9,9.5-2.7c2.8-1.8,4.9-4.2,6.3-7.2l18.1,6.4c-2.8,6.8-7.2,12.1-13.1,15.9-5.9,3.8-12.5,5.6-19.9,5.6Z"/>
    <path style="fill:#fff" d="M547.2,158.2V57.1h19.1v101.1h-19.1ZM565.4,139.9l-11.4-13.1,37-40.7h22.7l-48.2,53.9ZM593.4,158.2l-24-35,12.4-13.1,33.9,48.1h-22.4Z"/>
    <path style="fill:#fff" d="M625.6,187.1v-101.1h17.9l1.2,13.3v87.8h-19.1ZM666.5,160c-6.1,0-11.2-1.5-15.4-4.6-4.2-3.1-7.4-7.5-9.6-13.1-2.2-5.7-3.3-12.4-3.3-20.1s1.1-14.5,3.3-20.2c2.2-5.6,5.4-10,9.6-13.1,4.2-3.1,9.3-4.6,15.4-4.6s12.4,1.5,17.3,4.6c4.9,3.1,8.6,7.4,11.3,13.1,2.7,5.6,4,12.4,4,20.2s-1.3,14.4-4,20.1c-2.7,5.7-6.5,10.1-11.3,13.1-4.9,3.1-10.6,4.6-17.3,4.6ZM661.6,142.5c3.5,0,6.5-.9,9.2-2.6,2.6-1.7,4.7-4.1,6.3-7.2,1.5-3.1,2.3-6.6,2.3-10.5s-.7-7.5-2.2-10.5c-1.5-3.1-3.6-5.5-6.2-7.2-2.6-1.7-5.7-2.5-9.2-2.5s-6.2.9-8.8,2.6c-2.6,1.7-4.6,4.1-6.1,7.2-1.4,3-2.2,6.5-2.2,10.5s.7,7.5,2.2,10.5c1.4,3.1,3.4,5.5,6,7.2,2.6,1.7,5.5,2.6,8.7,2.6Z"/>
    <path style="fill:#fff" d="M711.7,158.2V57.1h19.1v101.1h-19.1Z"/>
    <path style="fill:#fff" d="M770.6,160c-8.7,0-15.4-1.9-20.2-5.8-4.8-3.8-7.2-9.3-7.2-16.3s2.6-13.5,7.7-17.4c5.2-3.9,12.4-5.9,21.7-5.9h18.3v14.2h-11.7c-6.3,0-10.6.7-13,2.2-2.4,1.5-3.6,3.6-3.6,6.3s1,3.8,2.9,5c1.9,1.2,4.6,1.8,8.1,1.8s6-.7,8.5-2.2c2.5-1.5,4.4-3.4,5.9-5.8,1.4-2.4,2.2-4.8,2.2-7.3h4.6c0,9.8-1.9,17.5-5.6,23-3.7,5.5-9.9,8.2-18.7,8.2ZM790.9,158.2l-.6-14.6v-22c0-4.3-.5-8-1.4-11.1-.9-3.1-2.4-5.5-4.3-7.2-2-1.7-4.6-2.5-8-2.5s-5.9.7-8.4,2c-2.5,1.4-4.6,3.4-6.4,6.2l-16.8-5.8c1.3-3.1,3.3-6.1,5.9-9,2.6-2.9,6-5.3,10.2-7.2,4.2-1.9,9.3-2.8,15.4-2.8s13.4,1.4,18.3,4.2c4.9,2.8,8.5,6.7,10.8,11.8,2.4,5.1,3.5,11.1,3.4,18l-.4,40h-17.8Z"/>
    <path style="fill:#fff" d="M818,102.2v-16.2h48.8v16.2h-48.8ZM854,160c-8,0-14-2-18.1-5.9-4.1-3.9-6.1-9.6-6.1-16.9V63.5h19.1v69.5c0,3.1.7,5.4,2,7,1.3,1.6,3.3,2.4,5.9,2.4s2-.2,3.2-.6,2.4-1.1,3.6-2l6.6,14.3c-2.3,1.7-4.9,3.2-7.7,4.3-2.8,1.1-5.7,1.7-8.5,1.7Z"/>
    <path style="fill:#fff" d="M913.6,160c-7.1,0-13.4-1.6-18.9-4.8-5.5-3.2-9.8-7.7-12.9-13.4-3.1-5.7-4.7-12.2-4.7-19.6s1.6-14,4.8-19.6c3.2-5.7,7.7-10.1,13.3-13.4,5.6-3.2,12.1-4.8,19.4-4.8s12.2,1.7,17.6,5,9.6,8.2,12.9,14.6c3.2,6.4,4.8,14.2,4.8,23.3h-54.7l1.7-1.7c0,3.6.9,6.7,2.7,9.3,1.8,2.6,4.1,4.7,6.9,6.1,2.8,1.4,5.9,2.1,9.2,2.1s7.2-.8,9.7-2.5c2.5-1.7,4.4-3.9,5.8-6.6l17,6.6c-2,4-4.6,7.5-7.9,10.5-3.2,2.9-7.1,5.2-11.5,6.7-4.4,1.5-9.5,2.3-15.2,2.3ZM897.9,114.8l-1.7-1.7h34.8l-1.6,1.7c0-3.5-.8-6.2-2.5-8.3-1.6-2.1-3.6-3.6-6-4.5-2.4-1-4.6-1.4-6.9-1.4s-4.6.5-7.1,1.4c-2.5,1-4.6,2.5-6.4,4.5-1.8,2.1-2.7,4.8-2.7,8.3Z"/>
  </g></svg>