<svg style="height:34px;width:auto" viewBox="0 0 1011.79 242.53" xmlns="http://www.w3.org/2000/svg"><path d="M967.17,29.54h32.92v183.45h-32.92v-3.66h15.59V33.19h-15.59v-3.66Z" style="fill:#d4531a;"/><path d="M37.01,212.99H4.09V29.54h32.92v3.66h-15.59v176.14h15.59v3.66Z" style="fill:#162a3a;"/><path d="M107.16,159.98c-10.31,0-19.43-2.24-27.37-6.72-7.95-4.48-14.18-10.64-18.71-18.49-4.53-7.85-6.79-16.88-6.79-27.09s2.26-19.23,6.79-27.08c4.53-7.85,10.76-14.01,18.71-18.49,7.94-4.48,17.07-6.72,27.37-6.72,6.16,0,11.85.92,17.05,2.75,5.2,1.83,9.8,4.36,13.8,7.58,4,3.23,7.34,6.91,10.04,11.05l-16.18,10.11c-1.64-2.6-3.78-4.91-6.43-6.93-2.65-2.02-5.56-3.61-8.74-4.77-3.18-1.16-6.36-1.73-9.53-1.73-6.36,0-11.99,1.47-16.9,4.41-4.91,2.94-8.76,6.96-11.56,12.06-2.79,5.11-4.19,11.03-4.19,17.77s1.37,12.57,4.12,17.77c2.74,5.2,6.62,9.27,11.63,12.21,5.01,2.94,10.78,4.41,17.33,4.41,5.1,0,9.65-1.01,13.65-3.03,3.99-2.02,7.15-4.86,9.46-8.52,2.31-3.66,3.47-7.9,3.47-12.71l18.78-2.89c0,9.53-1.95,17.67-5.85,24.41-3.9,6.74-9.29,11.87-16.18,15.38-6.89,3.52-14.81,5.27-23.76,5.27ZM110.48,119.53v-15.46h42.47v12.28l-10.69,3.18h-31.78Z" style="fill:#162a3a;"/><path d="M197.44,159.98c-7.13,0-13.43-1.61-18.92-4.84-5.49-3.22-9.8-7.68-12.93-13.36-3.13-5.68-4.69-12.23-4.69-19.65s1.61-13.96,4.84-19.65c3.23-5.68,7.66-10.13,13.29-13.36,5.63-3.22,12.11-4.84,19.43-4.84,6.36,0,12.21,1.66,17.55,4.98s9.63,8.19,12.86,14.59c3.23,6.41,4.84,14.18,4.84,23.33h-54.75l1.73-1.73c0,3.56.89,6.67,2.67,9.32,1.78,2.65,4.09,4.67,6.93,6.07,2.84,1.4,5.9,2.09,9.17,2.09,3.95,0,7.17-.84,9.68-2.53,2.5-1.68,4.43-3.88,5.78-6.57l17.05,6.64c-2.02,4.04-4.65,7.54-7.87,10.47-3.23,2.94-7.06,5.18-11.48,6.72-4.43,1.54-9.49,2.31-15.17,2.31ZM181.7,114.76l-1.73-1.73h34.81l-1.59,1.73c0-3.47-.82-6.23-2.46-8.31-1.64-2.07-3.64-3.59-5.99-4.55-2.36-.96-4.65-1.44-6.86-1.44s-4.58.48-7.08,1.44c-2.51.96-4.65,2.48-6.43,4.55-1.78,2.07-2.67,4.84-2.67,8.31Z" style="fill:#162a3a;"/><path d="M238.61,102.2v-16.18h48.83v16.18h-48.83ZM274.58,159.98c-7.99,0-14.04-1.97-18.13-5.92-4.09-3.95-6.14-9.58-6.14-16.9V63.48h19.07v69.48c0,3.08.67,5.42,2.02,7.01,1.35,1.59,3.32,2.38,5.92,2.38.96,0,2.02-.22,3.18-.65s2.36-1.08,3.61-1.95l6.65,14.3c-2.31,1.73-4.89,3.16-7.73,4.26-2.84,1.11-5.66,1.66-8.45,1.66Z" style="fill:#162a3a;"/><path d="M305.63,158.24V57.13h34.24c6.93,0,13,1.06,18.2,3.18,5.2,2.12,9.25,5.32,12.13,9.61,2.89,4.29,4.33,9.61,4.33,15.96,0,3.95-.99,7.58-2.96,10.91-1.98,3.32-4.74,6.19-8.31,8.6,4.72,2.41,8.35,5.61,10.91,9.61,2.55,4,3.83,8.79,3.83,14.37,0,6.16-1.4,11.41-4.19,15.75-2.79,4.33-6.69,7.61-11.7,9.82-5.01,2.22-10.88,3.32-17.62,3.32h-38.86ZM324.99,98.29h15.31c4.33,0,7.75-1.11,10.26-3.32,2.5-2.21,3.76-5.34,3.76-9.39s-1.4-7.17-4.19-9.39c-2.79-2.21-6.6-3.32-11.41-3.32h-13.72v25.42ZM324.99,140.76h17.62c4.72,0,8.43-1.18,11.12-3.54,2.69-2.36,4.04-5.51,4.04-9.46s-1.49-7.39-4.48-9.75c-2.99-2.36-7.08-3.54-12.28-3.54h-16.03v26.29Z" style="fill:#d4531a;"/><path d="M414.7,159.98c-8.67,0-15.38-1.93-20.15-5.78-4.77-3.85-7.15-9.29-7.15-16.32,0-7.7,2.58-13.51,7.73-17.41,5.15-3.9,12.4-5.85,21.74-5.85h18.35v14.16h-11.7c-6.26,0-10.59.75-13,2.24-2.41,1.49-3.61,3.59-3.61,6.28,0,2.12.96,3.78,2.89,4.98,1.93,1.21,4.62,1.81,8.09,1.81,3.18,0,6-.74,8.45-2.24,2.46-1.49,4.41-3.42,5.85-5.78,1.44-2.36,2.17-4.79,2.17-7.29h4.62c0,9.82-1.86,17.48-5.56,22.97-3.71,5.49-9.94,8.23-18.71,8.23ZM434.92,158.24l-.58-14.59v-21.96c0-4.33-.46-8.04-1.37-11.12-.92-3.08-2.36-5.46-4.33-7.15-1.97-1.68-4.65-2.53-8.02-2.53-3.08,0-5.88.67-8.38,2.02-2.51,1.35-4.62,3.42-6.36,6.21l-16.76-5.78c1.35-3.08,3.32-6.09,5.92-9.03s5.99-5.35,10.18-7.22c4.19-1.88,9.32-2.82,15.38-2.82,7.32,0,13.41,1.4,18.27,4.19,4.86,2.79,8.47,6.72,10.83,11.77,2.36,5.06,3.49,11.05,3.4,17.98l-.43,40.01h-17.77Z" style="fill:#d4531a;"/><path d="M503.1,159.98c-7.51,0-14.21-1.61-20.08-4.84-5.88-3.22-10.45-7.7-13.72-13.43-3.27-5.73-4.91-12.25-4.91-19.57s1.64-13.96,4.91-19.65c3.27-5.68,7.8-10.13,13.58-13.36,5.78-3.22,12.42-4.84,19.93-4.84s13.82,1.78,19.79,5.34c5.97,3.56,10.3,8.72,13,15.46l-17.91,6.36c-1.35-2.79-3.44-5.03-6.28-6.72-2.84-1.68-5.99-2.53-9.46-2.53s-6.69.84-9.39,2.53c-2.7,1.69-4.82,4.02-6.36,7.01-1.54,2.99-2.31,6.45-2.31,10.4s.77,7.39,2.31,10.33c1.54,2.94,3.71,5.27,6.5,7.01,2.79,1.73,5.97,2.6,9.53,2.6s6.62-.91,9.46-2.75c2.84-1.83,4.93-4.24,6.28-7.22l18.06,6.36c-2.79,6.84-7.15,12.13-13.07,15.89-5.92,3.76-12.54,5.63-19.86,5.63Z" style="fill:#d4531a;"/><path d="M547.16,158.24V57.13h19.07v101.12h-19.07ZM565.36,139.9l-11.41-13.14,36.98-40.74h22.68l-48.25,53.88ZM593.39,158.24l-23.98-34.96,12.42-13.15,33.95,48.1h-22.39Z" style="fill:#d4531a;"/><path d="M625.6,187.13v-101.12h17.91l1.16,13.29v87.83h-19.07ZM666.48,159.98c-6.07,0-11.2-1.54-15.38-4.62-4.19-3.08-7.39-7.46-9.61-13.15-2.22-5.68-3.32-12.37-3.32-20.08s1.11-14.52,3.32-20.15c2.21-5.63,5.42-9.99,9.61-13.07,4.19-3.08,9.32-4.62,15.38-4.62,6.64,0,12.4,1.54,17.26,4.62,4.86,3.08,8.64,7.44,11.34,13.07,2.7,5.63,4.04,12.35,4.04,20.15s-1.35,14.4-4.04,20.08c-2.7,5.68-6.48,10.06-11.34,13.15-4.86,3.08-10.62,4.62-17.26,4.62ZM661.57,142.5c3.47,0,6.52-.87,9.17-2.6,2.65-1.73,4.74-4.14,6.28-7.22,1.54-3.08,2.31-6.59,2.31-10.54s-.75-7.46-2.24-10.54c-1.49-3.08-3.56-5.46-6.21-7.15-2.65-1.68-5.71-2.53-9.17-2.53-3.27,0-6.21.87-8.81,2.6-2.6,1.73-4.62,4.12-6.07,7.15-1.45,3.03-2.17,6.53-2.17,10.47s.72,7.46,2.17,10.54c1.44,3.08,3.44,5.49,5.99,7.22,2.55,1.73,5.46,2.6,8.74,2.6Z" style="fill:#d4531a;"/><path d="M711.69,158.24V57.13h19.07v101.12h-19.07Z" style="fill:#d4531a;"/><path d="M770.63,159.98c-8.67,0-15.38-1.93-20.15-5.78-4.77-3.85-7.15-9.29-7.15-16.32,0-7.7,2.58-13.51,7.73-17.41,5.15-3.9,12.4-5.85,21.74-5.85h18.35v14.16h-11.7c-6.26,0-10.59.75-13,2.24-2.41,1.49-3.61,3.59-3.61,6.28,0,2.12.96,3.78,2.89,4.98,1.93,1.21,4.62,1.81,8.09,1.81,3.18,0,6-.74,8.45-2.24,2.46-1.49,4.41-3.42,5.85-5.78,1.44-2.36,2.17-4.79,2.17-7.29h4.62c0,9.82-1.86,17.48-5.56,22.97-3.71,5.49-9.95,8.23-18.71,8.23ZM790.85,158.24l-.58-14.59v-21.96c0-4.33-.46-8.04-1.37-11.12-.92-3.08-2.36-5.46-4.33-7.15-1.97-1.68-4.65-2.53-8.02-2.53-3.08,0-5.88.67-8.38,2.02-2.5,1.35-4.62,3.42-6.36,6.21l-16.76-5.78c1.35-3.08,3.32-6.09,5.92-9.03,2.6-2.94,6-5.35,10.18-7.22,4.19-1.88,9.32-2.82,15.38-2.82,7.32,0,13.41,1.4,18.27,4.19,4.86,2.79,8.47,6.72,10.83,11.77,2.36,5.06,3.49,11.05,3.39,17.98l-.43,40.01h-17.77Z" style="fill:#d4531a;"/><path d="M818.01,102.2v-16.18h48.83v16.18h-48.83ZM853.98,159.98c-7.99,0-14.04-1.97-18.13-5.92-4.09-3.95-6.14-9.58-6.14-16.9V63.48h19.07v69.48c0,3.08.67,5.42,2.02,7.01,1.35,1.59,3.32,2.38,5.92,2.38.96,0,2.02-.22,3.18-.65s2.36-1.08,3.61-1.95l6.64,14.3c-2.31,1.73-4.89,3.16-7.73,4.26-2.84,1.11-5.66,1.66-8.45,1.66Z" style="fill:#d4531a;"/><path d="M913.64,159.98c-7.13,0-13.43-1.61-18.92-4.84-5.49-3.22-9.8-7.68-12.93-13.36-3.13-5.68-4.69-12.23-4.69-19.65s1.61-13.96,4.84-19.65c3.23-5.68,7.66-10.13,13.29-13.36,5.63-3.22,12.11-4.84,19.43-4.84,6.36,0,12.21,1.66,17.55,4.98s9.63,8.19,12.86,14.59c3.22,6.41,4.84,14.18,4.84,23.33h-54.75l1.73-1.73c0,3.56.89,6.67,2.67,9.32,1.78,2.65,4.09,4.67,6.93,6.07,2.84,1.4,5.9,2.09,9.17,2.09,3.95,0,7.17-.84,9.68-2.53,2.5-1.68,4.43-3.88,5.78-6.57l17.05,6.64c-2.02,4.04-4.65,7.54-7.87,10.47-3.23,2.94-7.06,5.18-11.48,6.72-4.43,1.54-9.49,2.31-15.17,2.31ZM897.89,114.76l-1.73-1.73h34.81l-1.59,1.73c0-3.47-.82-6.23-2.46-8.31-1.64-2.07-3.64-3.59-5.99-4.55-2.36-.96-4.65-1.44-6.86-1.44s-4.57.48-7.08,1.44c-2.5.96-4.65,2.48-6.43,4.55-1.78,2.07-2.67,4.84-2.67,8.31Z" style="fill:#d4531a;"/></svg>